<svg width="189" height="65" viewBox="0 0 189 65" fill="none" xmlns="http://www.w3.org/2000/svg">
<g clip-path="url(#clip0_1115_1518)">
<path d="M92.8832 47.9446C92.8832 48.4875 92.6785 48.7601 92.267 48.7601H88.1519C87.7427 48.7601 87.5357 48.4898 87.5357 47.9446L87.6193 31.6083L87.7473 29.9798L87.7052 30.2594L84.4805 43.7454C84.4086 44.0321 84.3321 44.2248 84.2485 44.3235C84.1642 44.4245 84.0017 44.4738 83.7596 44.4738H80.6005C80.3584 44.4738 80.1999 44.4245 80.1233 44.3235C80.0468 44.2248 79.9656 44.0297 79.8796 43.7454L76.6545 30.3252L76.7615 31.6107L76.8242 47.947C76.8242 48.4898 76.6196 48.7624 76.208 48.7624H72.0718C71.6765 48.7624 71.4766 48.4922 71.4766 47.947V19.8824C71.4766 19.3537 71.6812 19.0881 72.0927 19.0881H77.5659C77.8054 19.0881 77.9611 19.1516 78.0332 19.2808C78.1029 19.4101 78.1685 19.5957 78.2239 19.8377L81.9789 34.6091L82.1484 35.7676L82.339 34.6326L86.1362 19.8401C86.1916 19.598 86.2572 19.4124 86.3267 19.2831C86.3962 19.1539 86.5524 19.0905 86.7938 19.0905H92.267C92.6629 19.0905 92.8605 19.356 92.8605 19.8847L92.8808 47.9493L92.8832 47.9446Z" fill="white"/>
<path d="M95.9395 26.0765C95.9395 24.918 96.1558 23.8793 96.5853 22.9582C97.0157 22.0371 97.6037 21.2546 98.3457 20.6107C99.0876 19.9668 99.9475 19.4781 100.922 19.142C101.898 18.806 102.931 18.6392 104.019 18.6392C105.107 18.6392 106.144 18.8083 107.127 19.142C108.111 19.4781 108.973 19.9645 109.715 20.5989C110.457 21.2358 111.048 22.0136 111.487 22.9371C111.926 23.8582 112.145 24.9063 112.145 26.0788V41.7948C112.145 42.9533 111.926 43.992 111.487 44.9154C111.048 45.8366 110.457 46.6192 109.715 47.263C108.973 47.9069 108.111 48.3957 107.127 48.7317C106.144 49.0677 105.109 49.2346 104.019 49.2346C102.929 49.2346 101.898 49.0583 100.922 48.7082C99.9452 48.358 99.0876 47.8622 98.3457 47.2184C97.6037 46.5745 97.0157 45.7967 96.5853 44.8826C96.1534 43.9685 95.9395 42.9392 95.9395 41.7948V26.0788V26.0765ZM101.752 41.4918C101.752 41.8348 101.801 42.1614 101.901 42.4669C101.998 42.7748 102.145 43.045 102.336 43.2823C102.526 43.5173 102.763 43.7076 103.047 43.851C103.331 43.9943 103.656 44.0648 104.023 44.0648C104.772 44.0648 105.346 43.8299 105.742 43.3575C106.137 42.8852 106.337 42.3071 106.337 41.621V26.3984C106.337 26.0553 106.288 25.7264 106.188 25.4115C106.088 25.0966 105.942 24.8193 105.742 24.5749C105.544 24.3329 105.304 24.1402 105.021 23.9969C104.737 23.8535 104.419 23.783 104.066 23.783C103.712 23.783 103.372 23.8535 103.089 23.9969C102.805 24.1402 102.565 24.3329 102.368 24.5749C102.17 24.817 102.017 25.0966 101.912 25.4115C101.805 25.7264 101.754 26.0553 101.754 26.3984V41.4918H101.752Z" fill="white"/>
<path d="M115.201 19.9246C115.201 19.6684 115.263 19.464 115.391 19.3136C115.519 19.1632 115.703 19.088 115.943 19.088H119.929C120.113 19.1021 120.29 19.1679 120.46 19.2807C120.629 19.3959 120.757 19.5744 120.841 19.8165L126.102 35.6382L126.633 38.1032L126.526 35.8521L126.294 19.9222C126.294 19.6943 126.354 19.4969 126.473 19.3324C126.594 19.1679 126.787 19.0857 127.056 19.0857H130.981C131.151 19.0857 131.313 19.1421 131.469 19.2572C131.625 19.3723 131.701 19.5862 131.701 19.9011V47.9445C131.701 48.4874 131.432 48.7599 130.895 48.7599H126.949C126.751 48.7599 126.556 48.7059 126.366 48.6002C126.175 48.4921 126.038 48.3182 125.952 48.0738L120.839 32.9594L120.288 30.9009L120.416 33.0439L120.607 47.9445C120.634 48.4874 120.388 48.7599 119.865 48.7599H115.94C115.445 48.7599 115.198 48.4897 115.198 47.9445V19.9222L115.201 19.9246Z" fill="white"/>
<path d="M135.226 19.9247C135.226 19.6685 135.289 19.4641 135.417 19.3138C135.544 19.1633 135.729 19.0881 135.968 19.0881H148.951C149.36 19.0881 149.567 19.3537 149.567 19.8824V23.5271C149.567 24.0417 149.362 24.2978 148.951 24.2978H141.039V31.1806H147.34C147.537 31.1806 147.704 31.2394 147.837 31.3521C147.972 31.4673 148.039 31.66 148.039 31.9303V35.596C148.039 35.8545 147.977 36.0401 147.849 36.153C147.721 36.2681 147.551 36.3245 147.34 36.3245H141.039V43.5927H149.058C149.241 43.5927 149.393 43.6537 149.514 43.776C149.634 43.8982 149.695 44.0791 149.695 44.3235V48.0105C149.695 48.2689 149.634 48.4569 149.514 48.5791C149.393 48.7013 149.241 48.7624 149.058 48.7624H135.97C135.475 48.7624 135.228 48.4922 135.228 47.947V19.9247H135.226Z" fill="white"/>
<path d="M156.567 36.4536L150.903 19.988C150.82 19.7178 150.82 19.4993 150.903 19.3347C150.987 19.1703 151.143 19.088 151.371 19.088H155.656C155.853 19.088 156.035 19.1421 156.198 19.2478C156.36 19.3559 156.477 19.558 156.549 19.8588L159.178 29.3147L159.476 30.7716L159.774 29.3147L162.383 19.8588C162.424 19.5862 162.526 19.3912 162.689 19.2689C162.852 19.1468 163.031 19.0857 163.231 19.0857H167.558C167.797 19.0857 167.96 19.1632 168.046 19.3206C168.132 19.4781 168.123 19.699 168.025 19.9857L162.404 36.4724V47.921C162.404 48.478 162.192 48.7576 161.766 48.7576H157.205C156.779 48.7576 156.567 48.478 156.567 47.921V36.4513V36.4536Z" fill="white"/>
<path d="M64.2831 0.0376559V65.0024C42.8786 65.0024 21.474 65.0024 0.0717675 65.0024C-0.0328605 64.8497 0.0113157 64.6735 0.0113157 64.5089C0.0113157 54.4961 0.0113157 44.4856 0.0113157 34.4728C0.00899073 23.1605 0.00666563 11.8481 0.00899073 0.53583C0.00899073 0.368988 -0.0351856 0.195098 0.0624673 0.0400058C0.169421 -0.0234409 0.287999 0.00710749 0.399602 0.00710749C21.5809 0.00710749 42.7623 0.00710749 63.9436 0.00710749C64.0576 0.00710749 64.1739 -0.0210911 64.2831 0.0376559Z" fill="white"/>
<path d="M43.8764 27.5734C43.8577 27.7074 43.8647 27.8085 43.8647 27.9095C43.8647 30.0878 43.8624 32.2661 43.8647 34.4445C43.8647 34.9567 43.8136 35.4597 43.6368 35.939C43.0416 37.5557 41.9094 38.5497 40.219 38.8505C38.445 39.1654 36.6709 38.2607 35.813 36.7638C34.7714 34.945 33.7228 33.1286 32.6788 31.3121C32.0161 30.1607 31.3558 29.0116 30.6932 27.8601C30.6421 27.7709 30.5862 27.6862 30.5351 27.5993C30.4584 27.6392 30.4862 27.698 30.4816 27.7449C30.477 27.7967 30.4816 27.8507 30.4816 27.9048C30.4816 29.9656 30.4816 32.0288 30.4816 34.0896C30.4816 34.6301 30.4305 35.1659 30.3002 35.6923C30.2352 35.9602 30.1468 36.2187 30.0329 36.4701C29.5074 37.6238 28.6123 38.3218 27.4148 38.6461C26.9475 38.7729 26.4685 38.8293 25.9873 38.8293C23.4878 38.8317 20.986 38.8552 18.4866 38.8246C13.018 38.7612 8.55858 34.945 7.3472 29.8716C7.06819 28.7037 6.96357 27.5194 7.05657 26.3163C7.29373 23.2027 8.55155 20.5826 10.8185 18.4723C12.3577 17.0389 14.1689 16.1154 16.2196 15.6784C16.9892 15.5138 17.7659 15.4269 18.554 15.4292C19.7143 15.4292 20.8768 15.4292 22.0369 15.4292C22.109 15.4292 22.1835 15.4292 22.2555 15.4386C22.2788 15.441 22.309 15.4739 22.3136 15.4974C22.3253 15.5374 22.3206 15.582 22.3206 15.6243C22.3206 16.4491 22.3206 17.2739 22.3206 18.0987C22.3206 18.141 22.3206 18.1833 22.316 18.2257C22.309 18.2703 22.2765 18.3008 22.2323 18.3032C22.1392 18.3079 22.044 18.3102 21.951 18.3102C20.8744 18.3102 19.7956 18.3102 18.7191 18.3102C17.4171 18.3102 16.1592 18.5428 14.9804 19.1139C12.3159 20.4039 10.672 22.5189 10.0373 25.435C9.16776 30.116 11.9857 34.3411 16.1383 35.5842C16.8823 35.8075 17.645 35.9343 18.4238 35.9343C20.893 35.9343 23.3623 35.9273 25.8315 35.9414C26.5872 35.9461 27.373 35.3727 27.566 34.5526C27.5869 34.4609 27.6009 34.367 27.6055 34.2706C27.6125 34.1343 27.6125 33.9957 27.6125 33.8593C27.6125 29.2606 27.6125 24.6596 27.6125 20.0608C27.6125 19.9457 27.6078 19.8283 27.6195 19.7131C27.6543 19.4264 27.8589 19.1867 28.117 19.1209C28.403 19.0481 28.6843 19.1585 28.8564 19.4147C28.9029 19.4852 28.9424 19.5603 28.9842 19.6332C31.9325 24.7677 34.8783 29.9045 37.8265 35.039C37.88 35.1307 37.9311 35.2223 37.9846 35.3139C38.3776 35.9766 39.1681 36.2351 39.7982 36.0612C40.4771 35.8709 40.9676 35.2763 41.0142 34.5408C41.0211 34.4257 41.0165 34.3082 41.0165 34.193C41.0165 29.4886 41.0165 24.7818 41.0165 20.0773C41.0165 19.9598 41.0142 19.8447 41.0235 19.7295C41.0467 19.4382 41.2397 19.2032 41.5047 19.1303C41.7721 19.0575 42.0605 19.1562 42.2278 19.3865C42.2906 19.4711 42.3394 19.565 42.3929 19.6567C45.3481 24.81 48.3032 29.9656 51.2607 35.1213C51.3073 35.2035 51.3537 35.2881 51.4049 35.368C51.7978 35.9766 52.514 36.2492 53.2138 36.0588C53.8904 35.8756 54.381 35.2434 54.4042 34.5197C54.4089 34.4045 54.4042 34.2871 54.4042 34.1719C54.4042 28.0598 54.4042 21.9502 54.4042 15.8381C54.4042 15.7441 54.4042 15.6478 54.4042 15.5538C54.4042 15.4715 54.4484 15.4433 54.5205 15.4433C54.5716 15.4433 54.6251 15.4433 54.6786 15.4433C55.4528 15.4433 56.227 15.4433 57.0013 15.4433C57.0548 15.4433 57.106 15.4433 57.1594 15.4433C57.2176 15.4457 57.2571 15.4739 57.2594 15.5374C57.2617 15.6102 57.264 15.6854 57.264 15.7582C57.264 21.976 57.264 28.1915 57.264 34.4092C57.264 35.3891 57.0269 36.2939 56.4526 37.0905C55.7504 38.0656 54.8088 38.6625 53.6277 38.8646C51.8094 39.1748 50.0331 38.2348 49.1798 36.7356C47.4965 33.7794 45.7899 30.8328 44.0925 27.8836C44.0391 27.7897 44.0019 27.6768 43.8764 27.5852" fill="#0A0A0A"/>
<path d="M37.1988 26.6149V26.3047C37.1988 24.1169 37.1988 21.9268 37.1988 19.7391C37.1988 19.107 37.3104 18.4983 37.5731 17.925C38.2194 16.5221 39.3006 15.6597 40.8026 15.3894C42.6278 15.0605 44.3879 15.9746 45.2458 17.4644C46.1805 19.0905 47.1174 20.7143 48.0521 22.3404C48.8241 23.6822 49.596 25.0263 50.3679 26.3681C50.4191 26.4574 50.4726 26.542 50.5237 26.6266C50.5981 26.6125 50.5841 26.5608 50.5841 26.5255C50.5864 26.4315 50.5841 26.3352 50.5841 26.2412C50.5841 22.7633 50.5841 19.2855 50.5841 15.8054C50.5841 15.3871 50.526 15.4341 50.9492 15.4341C51.6699 15.4341 52.393 15.4341 53.1138 15.4341C53.1975 15.4341 53.2813 15.4341 53.3649 15.4411C53.4114 15.4435 53.4417 15.4717 53.4439 15.5211C53.4486 15.5939 53.4486 15.6691 53.4486 15.7419C53.4486 21.9174 53.4486 28.0905 53.4486 34.2661C53.4486 34.3413 53.451 34.4141 53.4463 34.4869C53.4184 34.8136 53.2254 35.0462 52.9255 35.1214C52.6395 35.1919 52.3721 35.0815 52.1977 34.8159C52.1396 34.729 52.0884 34.635 52.0373 34.5433C49.1031 29.4253 46.1688 24.3073 43.2346 19.1892C43.1719 19.0788 43.1113 18.9684 43.0416 18.8626C42.7115 18.3597 42.0953 18.0096 41.3141 18.1765C40.6771 18.3104 40.1772 18.8743 40.0772 19.5417C40.0516 19.7109 40.0516 19.8777 40.0516 20.0469C40.0516 24.7514 40.0516 29.4558 40.0516 34.1626C40.0516 34.2778 40.0563 34.3953 40.047 34.5104C40.0237 34.823 39.84 35.0439 39.5424 35.1191C39.2681 35.1895 38.996 35.0885 38.8286 34.8465C38.7682 34.7595 38.7194 34.6679 38.6659 34.5762C36.0873 30.0809 33.5065 25.5856 30.928 21.0903C30.5304 20.3947 30.1282 19.7038 29.733 19.006C29.5028 18.6018 29.1796 18.3174 28.7332 18.1976C27.6543 17.9062 26.7382 18.6887 26.6639 19.6545C26.6546 19.7814 26.6569 19.9083 26.6569 20.0351C26.6569 24.6339 26.6569 29.2326 26.6569 33.8336C26.6569 33.9277 26.6499 34.024 26.6569 34.118C26.6848 34.5034 26.3058 34.9922 25.7943 34.978C25.313 34.9639 24.8317 34.9757 24.3504 34.9757H18.6075C15.3897 34.9757 12.6181 32.9971 11.437 30.1608C10.9581 29.0094 10.7604 27.8086 10.8534 26.5655C11.1324 22.8339 13.8458 20.1503 16.8846 19.4806C17.3869 19.3702 17.8914 19.2949 18.4052 19.2949C19.6282 19.2949 20.8535 19.2949 22.0765 19.2949C22.1277 19.2949 22.1812 19.2949 22.2323 19.2996C22.2788 19.3043 22.309 19.3302 22.316 19.3772C22.3206 19.4289 22.3206 19.483 22.3206 19.5346C22.3206 20.3383 22.3206 21.1419 22.3206 21.9456C22.3206 21.9879 22.3206 22.0303 22.3183 22.0725C22.3183 22.1383 22.2764 22.1642 22.2183 22.1665C22.1346 22.1689 22.051 22.1689 21.9672 22.1689C20.8489 22.1689 19.7282 22.1618 18.6098 22.1712C17.5775 22.1806 16.6312 22.4744 15.7919 23.0876C14.6618 23.9149 13.9829 25.0263 13.7737 26.4268C13.404 28.9201 14.992 31.3945 17.5938 31.982C17.9611 32.0642 18.3378 32.0901 18.7168 32.0901C20.0979 32.0901 21.479 32.0901 22.8601 32.0901C22.9646 32.0901 23.0693 32.0854 23.1716 32.0713C23.4739 32.0266 23.7041 31.8057 23.7761 31.5049C23.811 31.3592 23.8087 31.2112 23.8087 31.0631C23.8087 28.3984 23.8087 25.7336 23.8087 23.0712C23.8087 21.9714 23.811 20.8718 23.8087 19.772C23.8087 19.161 23.9017 18.5712 24.1458 18.0119C24.7829 16.562 25.878 15.6691 27.4195 15.3941C29.2679 15.0652 31.021 16.0075 31.8744 17.5044C33.2066 19.8378 34.5505 22.1618 35.8897 24.4929C36.2617 25.1415 36.6361 25.79 37.0104 26.4386C37.0523 26.5091 37.0987 26.5772 37.1429 26.6454C37.1615 26.6384 37.1801 26.6313 37.201 26.6266" fill="#0A0A0A"/>
<path d="M20.4459 42.7819C20.8342 43.0921 21.0271 43.5409 21.0271 44.1283C21.0271 44.4855 20.9434 44.7957 20.7761 45.0589C20.6086 45.3222 20.3761 45.5289 20.0762 45.6769V45.6863C20.5226 45.8274 20.8481 46.0482 21.0481 46.3443C21.248 46.6404 21.348 47.0046 21.348 47.437C21.348 47.8694 21.2387 48.2618 21.0179 48.5743C20.7969 48.8892 20.4993 49.1265 20.1227 49.2887C19.746 49.4508 19.3205 49.5308 18.8462 49.5308H15.4609V42.3167H18.7346C19.488 42.3167 20.0599 42.4717 20.4459 42.7819ZM17.0025 43.5503V45.1788H18.5533C18.8602 45.1788 19.095 45.1106 19.2531 44.972C19.4135 44.8333 19.4926 44.6289 19.4926 44.3587C19.4926 44.0884 19.4135 43.8958 19.2531 43.7571C19.0927 43.6185 18.8602 43.5503 18.5533 43.5503H17.0025ZM17.0025 46.4148V48.297H18.7741C19.1136 48.297 19.3717 48.2148 19.5461 48.048C19.7205 47.8835 19.8065 47.6509 19.8065 47.3548C19.8065 47.0587 19.7205 46.826 19.5461 46.6615C19.3717 46.4971 19.1159 46.4124 18.7741 46.4124H17.0025V46.4148Z" fill="#0A0A0A"/>
<path d="M28.4306 49.0842C28.4608 49.2463 28.505 49.3944 28.5655 49.5307H26.9844C26.917 49.3356 26.8566 49.0254 26.8031 48.6001L26.6822 47.679C26.6427 47.3617 26.5427 47.1338 26.3822 46.9951C26.2218 46.8565 25.9683 46.7883 25.6219 46.7883H24.0688V49.5307H22.4971V42.3142H25.7708C26.6263 42.3142 27.2564 42.4904 27.668 42.8453C28.0772 43.2001 28.2841 43.7006 28.2841 44.3492C28.2841 44.7745 28.1935 45.1387 28.0144 45.4419C27.833 45.745 27.5634 45.9753 27.203 46.1304C27.5169 46.2385 27.7494 46.4029 27.9051 46.6262C28.0586 46.8495 28.1586 47.1385 28.2051 47.4956L28.326 48.3863C28.3655 48.6894 28.4004 48.922 28.4306 49.0842ZM26.7147 44.5513C26.7147 43.8839 26.3264 43.5502 25.5522 43.5502H24.0711V45.5547H25.5522C26.3264 45.5547 26.7147 45.221 26.7147 44.5537" fill="#0A0A0A"/>
<path d="M34.4245 47.9116H31.76L31.2601 49.5307H29.5791L31.9414 42.3142H34.2246L36.638 49.5307H34.9454L34.4245 47.9116ZM33.0435 43.4586L32.1018 46.6756H34.1037L33.1132 43.4586H33.0435Z" fill="#0A0A0A"/>
<path d="M41.4275 42.366C41.8391 42.5351 42.1623 42.7795 42.3994 43.0991C42.6365 43.4187 42.7551 43.7993 42.7551 44.2388H41.1834C41.1508 43.9615 41.0322 43.7523 40.8276 43.6067C40.623 43.461 40.3347 43.3905 39.9627 43.3905C39.7232 43.3905 39.5116 43.4258 39.3326 43.4963C39.1513 43.5667 39.0141 43.6678 38.9165 43.7993C38.8188 43.931 38.7723 44.0766 38.7723 44.2388C38.7723 44.4409 38.8304 44.6031 38.9467 44.7252C39.0629 44.8474 39.221 44.9273 39.4233 44.9673L41.2461 45.3621C41.8344 45.4913 42.2739 45.724 42.5668 46.0646C42.8598 46.4054 43.0085 46.8448 43.0085 47.3853C43.0085 47.8506 42.8923 48.2547 42.6621 48.6002C42.4319 48.9433 42.1041 49.2112 41.6809 49.3991C41.2578 49.5872 40.7602 49.6835 40.1929 49.6835C39.5861 49.6835 39.0536 49.5942 38.6002 49.4156C38.1469 49.237 37.7935 48.9762 37.5446 48.6307C37.2936 48.2876 37.168 47.8787 37.168 47.4064V47.3266H38.7397V47.3876C38.7397 47.6908 38.8583 47.9375 39.0955 48.1255C39.3326 48.3135 39.6837 48.4099 40.151 48.4099C40.5928 48.4099 40.9183 48.3299 41.1322 48.1678C41.3461 48.0056 41.4531 47.7942 41.4531 47.531C41.4531 47.2937 41.3787 47.1103 41.2322 46.9741C41.0857 46.8401 40.8323 46.732 40.4719 46.6498L38.9304 46.3161C38.3491 46.1939 37.919 45.9659 37.64 45.6276C37.3586 45.2915 37.2191 44.8615 37.2191 44.3422C37.2191 43.8699 37.3424 43.4657 37.5888 43.1273C37.8352 42.7913 38.1724 42.5375 38.6002 42.3683C39.0281 42.1991 39.507 42.1145 40.0418 42.1145C40.5765 42.1145 41.0183 42.1991 41.4275 42.3683" fill="#0A0A0A"/>
<path d="M46.0995 42.3142H44.5068V49.5307H46.0995V42.3142Z" fill="#0A0A0A"/>
<path d="M49.3726 48.2147H52.737V49.5307H47.7822V42.3142H49.3726V48.2147Z" fill="#0A0A0A"/>
<path d="M177.091 34.9355H172.464V48.7599H177.091V34.9355Z" fill="white"/>
<path d="M183.217 38.3054H178.521V48.7601H183.217V38.3054Z" fill="white"/>
<path d="M189.003 27.5076H184.306V48.7598H189.003V27.5076Z" fill="white"/>
</g>
<defs>
<clipPath id="clip0_1115_1518">
<rect width="189" height="65" fill="white"/>
</clipPath>
</defs>
</svg>
